<?xml version="1.0" encoding="UTF-8"?>
<!DOCTYPE svg PUBLIC "-//W3C//DTD SVG 1.1//EN" "http://www.w3.org/Graphics/SVG/1.1/DTD/svg11.dtd">
<!-- Creator: CorelDRAW X7 -->
<svg xmlns="http://www.w3.org/2000/svg" xml:space="preserve" width="1.87661in" height="2.23657in" version="1.1" style="shape-rendering:geometricPrecision; text-rendering:geometricPrecision; image-rendering:optimizeQuality; fill-rule:evenodd; clip-rule:evenodd"
viewBox="0 0 1617 1927"
 xmlns:xlink="http://www.w3.org/1999/xlink">
 <defs>
  <style type="text/css">
   <![CDATA[
    .fil0 {fill:black}
   ]]>
  </style>
 </defs>
 <g id="Layer_x0020_1">
  <metadata id="CorelCorpID_0Corel-Layer"/>
  <g id="_2145660680208">
   <path class="fil0" d="M809 0c-372,0 -673,301 -673,673 0,298 192,549 460,638 33,6 46,-14 46,-32 0,-16 -1,-69 -1,-125 -169,31 -213,-41 -226,-79 -8,-19 -40,-79 -69,-95 -24,-13 -57,-44 -1,-45 53,0 91,49 104,69 60,102 157,74 196,56 5,-44 23,-73 42,-90 -149,-17 -306,-75 -306,-332 0,-74 26,-134 69,-181 -6,-17 -30,-86 7,-179 0,0 56,-17 185,69 54,-15 111,-22 168,-22 58,0 115,7 169,22 128,-87 185,-69 185,-69 37,93 13,162 6,179 43,47 69,107 69,181 0,258 -157,315 -307,332 25,21 46,61 46,124 0,90 -1,163 -1,185 0,18 12,39 46,32 266,-89 459,-341 459,-638 0,-372 -302,-673 -673,-673z"/>
   <path class="fil0" d="M309 1679l-128 0 0 66c0,4 2,6 6,6l52 0 0 82c0,0 -11,4 -44,4 -39,0 -92,-14 -92,-132 0,-118 56,-134 108,-134 46,0 65,8 78,12 4,1 7,-3 7,-6l16 -64c0,-2 -1,-4 -3,-5 -18,3 -49,-15 -127,-15 -90,0 -182,39 -182,223 0,184 106,211 195,211 74,0 118,-31 118,-31 2,-1 2,-4 2,-5l0 -205c0,-4 -3,-7 -6,-7zm695 -163c0,-4 -6,-4 -6,-4l-66 0c-1,0 -4,1 -4,4l0 146 -118 0 0 -146c0,-4 -3,-7 -7,-7l-63 0c-4,1 -6,2 -6,6l0 392c0,3 3,6 6,6l64 0c4,0 6,-3 6,-6l0 -170 119 0 -1 170c0,3 3,6 7,6l63 0c3,0 6,-3 6,-6l0 -391zm-552 52c0,-28 -22,-50 -49,-50 -27,0 -49,22 -49,50 0,27 22,49 49,49 27,0 49,-22 49,-49zm-5 261l0 -183c0,-4 -3,-7 -6,-7l-76 0c-4,0 -7,4 -7,7l0 263c0,8 5,10 11,10l69 0c7,0 9,-4 9,-10l0 -80zm846 -189l-76 0c-3,0 -6,3 -6,6l0 195c0,0 -19,14 -46,14 -28,0 -35,-12 -35,-39l0 -170c0,-3 -3,-6 -6,-6l-77 0c-3,0 -6,3 -6,6l0 183c0,79 44,98 105,98 50,0 90,-27 90,-27 0,0 1,14 2,16 1,2 3,4 6,4l49 -1c3,0 6,-3 6,-6l0 -267c0,-3 -3,-6 -6,-6l0 0zm182 215c-26,-1 -44,-13 -44,-13l0 -126c0,0 17,-10 39,-12 27,-3 53,6 53,70 0,68 -12,82 -48,81zm23 -230c-42,0 -71,25 -71,25l0 -134c0,-4 -3,-7 -7,-7l-70 0 0 398c0,3 3,6 7,6l53 0c2,0 4,-1 5,-4 1,-2 3,-18 3,-18 0,0 31,30 90,30 70,0 109,-35 109,-158 0,-122 -63,-138 -106,-138l-13 0zm-820 8l-45 0 0 -75c0,-3 -2,-5 -5,-5l-78 0c-3,0 -4,2 -4,5l0 77c0,0 -42,5 -44,6 -2,0 -4,2 -4,5l0 48c0,4 3,7 6,7l40 0 0 117c0,88 62,96 103,96 19,0 41,-6 45,-7 2,-1 4,-3 4,-6l0 -54c0,-3 -3,-6 -7,-6 -3,0 -11,1 -20,1 -28,0 -38,-13 -38,-30l0 -111 57 0 0 -55c0,-5 -4,-13 -10,-13z"/>
  </g>
 </g>
</svg>
